<mxfile host="app.diagrams.net" modified="2021-08-30T10:19:41.775Z" agent="5.0 (Windows NT 10.0; Win64; x64) AppleWebKit/537.36 (KHTML, like Gecko) Chrome/92.0.4515.159 Safari/537.36" etag="6L0hK9HeuM64hbp1WS6l" version="15.0.2" type="github">
  <diagram id="4HFH8DATLbDGBbuZG_Lh" name="Page-1">
    <mxGraphModel dx="1014" dy="904" grid="1" gridSize="10" guides="1" tooltips="1" connect="1" arrows="1" fold="1" page="1" pageScale="1" pageWidth="827" pageHeight="1169" math="0" shadow="0">
      <root>
        <mxCell id="0" />
        <mxCell id="1" parent="0" />
      </root>
    </mxGraphModel>
  </diagram>
</mxfile>
